<svg xmlns="http://www.w3.org/2000/svg" viewBox="0 0 16 16">
  <path d="M0 2H16V15H0Z" fill="#1a1610"/>
  <path d="M1 3H15V14H1Z" fill="#3a352c"/>
  <path d="M1 14V9C3 6 5 6 7 9C7 11 6 13 5 14Z" fill="#5a7734"/>
  <path d="M1 14V9C2 7.5 3 7 4 7.2C2.5 9 2 11.5 2.5 14Z" fill="#6f8d3c"/>
  <path d="M5 14C6 11 8 7 11 7C13.5 7 15 9 15 12V14Z" fill="#446026"/>
  <path d="M5 14C6 11 8 7 11 7C9 8 7.5 11 7 14Z" fill="#5a7734"/>
  <path d="M11 7A1.6 1.6 0 1 0 11 3.8A1.6 1.6 0 1 0 11 7Z" fill="#f0c55a"/>
  <path d="M11 4.5A0.9 0.9 0 1 0 11 6.3A0.9 0.9 0 1 0 11 4.5Z" fill="#f7e3a4"/>
</svg>
