<svg xmlns="http://www.w3.org/2000/svg" viewBox="0 0 16 16">
  <path d="M4 7H6V4.5C6 3.5 7.5 3.5 7.5 4.5V6H8V3C8 2 9.5 2 9.5 3V6H10V3.5C10 2.5 11.5 2.5 11.5 3.5V6H12V4.5C12 3.7 13.5 3.7 13.5 4.5V9C13.5 13 11 16 8 16C5.5 16 4 14.5 3 12L1.5 8.5C1 7.2 2.2 6.5 3 7.5Z" fill="#1a1610"/>
  <path d="M5 7.5H6V5C6 4.4 6.7 4.4 6.7 5V6.5H7.3V3.6C7.3 3 8 3 8 3.6V6.5H8.7V4.2C8.7 3.6 9.4 3.6 9.4 4.2V6.5H10V5C10 4.4 10.7 4.4 10.7 5V9.5L12.5 7.8C12.5 7.8 12.8 8.5 12.5 9.2C12 11 11 15 8 15C6 15 5 13.5 4.2 11.5L3 8.7C2.7 8 3.6 7.6 4 8.3Z" fill="#f0c55a"/>
  <path d="M5 7.5H6V5C6 4.4 6.7 4.4 6.7 5V6.5H7.3V3.6C7.3 3 8 3 8 3.6V8H4.2L3 8.7C2.7 8 3.6 7.6 4 8.3Z" fill="#f7e3a4"/>
  <path d="M4 11H11C10 13.5 9 15 8 15C6 15 5 13.5 4.2 11.5Z" fill="#c9962f"/>
</svg>
