<svg xmlns="http://www.w3.org/2000/svg" viewBox="0 0 16 16">
  <path d="M2 1H13L14 2V14H2Z" fill="#1a1610"/>
  <path d="M3 2H12.5L13 2.5V13H3Z" fill="#3a352c"/>
  <path d="M8 3.5C10.2 3.5 11.5 4.8 11.5 7V12.5H9.2V11.5C8.6 12.3 7.7 12.7 6.7 12.7C4.9 12.7 3.5 11.4 3.5 9.4C3.5 7.4 4.9 6.1 6.9 6.1C7.8 6.1 8.6 6.4 9.2 7V6.8C9.2 5.8 8.6 5.3 7.5 5.3C6.7 5.3 5.9 5.6 5 6.1L4.2 4C5.4 3.6 6.7 3.5 8 3.5Z" fill="#f0c55a"/>
  <path d="M7.4 8.2C8.3 8.2 9 8.9 9 9.5C9 10.4 8.3 11 7.4 11C6.6 11 5.9 10.4 5.9 9.5C5.9 8.7 6.6 8.2 7.4 8.2Z" fill="#3a352c"/>
  <path d="M8 3.5C9 3.5 9.8 3.8 10.3 4.4L9.2 5.6C8.8 5.4 8.2 5.3 7.5 5.3C6.7 5.3 5.9 5.6 5 6.1L4.2 4C5.4 3.6 6.7 3.5 8 3.5Z" fill="#f7e3a4"/>
</svg>
