<?xml version="1.0" encoding="utf-8"?>
<!DOCTYPE svg PUBLIC "-//W3C//DTD SVG 1.1//EN" "http://www.w3.org/Graphics/SVG/1.1/DTD/svg11.dtd">
<svg version="1.1" xmlns="http://www.w3.org/2000/svg" xmlns:xlink="http://www.w3.org/1999/xlink" x="0px" y="0px"
	 width="310.909px" height="307.967px" viewBox="0 0 310.909 307.967" enable-background="new 0 0 310.909 307.967"
	 xml:space="preserve">
<g id="Layer_2">
</g>
<g id="Layer_1">
	<path fill="#73BCC4" d="M201,102.989v-0.242l-17.474-0.018c-0.63-3.305-1.224-6.532-2.289-9.658L197,84.146l-0.104-0.307
		l0.084-0.025l-6.652-11.566l-6.609-11.584l-0.047,0.025l-0.168-0.307l-15.62,9.003c-2.172-2.513-4.522-4.88-7.035-7.069l9.08-15.57
		l-0.298-0.179l0.025-0.042l-11.559-6.678l-11.532-6.729l-0.025,0.051l-0.298-0.18l-9.012,15.596
		c-3.117-1.082-6.337-1.959-9.642-2.598l0.077-17.998h-0.016l0,0h-13.68L101,27.862v-0.025l0,0v18.091
		c-6,0.63-6.888,1.491-10.013,2.563l-9.133-15.629L58.298,46.302l8.906,15.639c-2.597,2.24-5.047,4.65-7.305,7.231L44.31,60.108
		L30.71,83.481l15.558,9.053c-1.124,3.212-2.028,6.517-2.692,9.915l-18.007-0.052l-0.077,27.043l18.015,0.051
		c0.639,3.398,1.516,6.713,2.623,9.924l-15.621,8.969l13.458,23.447l15.638-8.969c2.231,2.598,4.65,5.025,7.231,7.274l-9.046,15.587
		L81.178,199.3l9.037-15.57c3.211,1.117,6.516,2.02,9.914,2.676l-0.034,18.005l27.042,0.06l0.034-18.014
		c3.398-0.647,6.711-1.525,9.922-2.633l8.977,15.604l23.448-13.483l-8.985-15.621c2.589-2.24,5.017-4.658,7.265-7.248l15.596,9.037
		l13.551-23.406l-15.578-9.02c1.082-3.125,1.474-6.336,2.121-9.641L201,130.14v-0.15h1.039l0.018-13.5l0.06-13.5H201z
		 M113.808,144.389c-15.586,0-28.227-12.64-28.227-28.228c0-15.578,12.64-28.217,28.227-28.217
		c15.587,0,28.218,12.639,28.218,28.217C142.026,131.749,129.395,144.389,113.808,144.389z"/>
	<path fill="#EC8457" d="M290.289,223.494l0.001-0.008l-11.612-1.824c-0.077-2.298-0.045-4.526-0.435-6.751l11.635-4.359
		l-0.015-0.215l0.071-0.006l-3.268-8.514l-3.24-8.52l-0.033,0.012l-0.081-0.225l-11.499,4.435c-1.202-1.927-2.539-3.773-4.006-5.517
		l7.774-9.56l-0.183-0.151l0.021-0.027l-7.103-5.729l-7.08-5.76l-0.022,0.031l-0.183-0.152l-7.73,9.584
		c-1.992-1.059-4.077-1.975-6.241-2.755l1.946-12.132l-0.011-0.002l0,0l-9.24-1.441l-9.137-1.548l0.003-0.018l0,0l-1.907,12.22
		c-2.508,0.045-4.611,0.312-6.836,0.707l-4.423-11.504l-17.278,6.602l4.392,11.506c-1.99,1.239-3.888,2.611-5.684,4.116
		l-9.568-7.764l-11.646,14.353l9.556,7.756c-1.098,2.051-2.057,4.188-2.863,6.413l-12.156-1.933l-2.902,18.258l12.162,1.934
		c0.072,2.363,0.316,4.693,0.726,6.979l-11.497,4.411l6.618,17.257l11.509-4.41c1.232,1.99,2.611,3.885,4.117,5.676l-7.753,9.574
		l14.366,11.637l7.745-9.564c2.052,1.092,4.188,2.051,6.415,2.852l-1.922,12.158l18.26,2.892l1.922-12.164
		c2.364-0.079,4.694-0.322,6.98-0.731l4.418,11.485l17.26-6.635l-4.423-11.499c1.985-1.239,3.88-2.617,5.672-4.129l9.581,7.748
		l11.62-14.381l-9.571-7.734c1.061-1.998,1.476-4.154,2.262-6.318l11.63,1.88l-0.035,0.229l1.077,0.168l1.473-9.359l1.501-9.354
		L290.289,223.494z M227.381,242.479c-10.527-1.643-17.732-11.513-16.09-22.041c1.643-10.521,11.513-17.727,22.041-16.084
		c10.527,1.643,17.727,11.512,16.084,22.035C247.774,236.917,237.91,244.123,227.381,242.479z"/>
</g>
</svg>
